<svg width="22" height="25" viewBox="0 0 22 25" fill="none" xmlns="http://www.w3.org/2000/svg">
<g clip-path="url(#clip0)">
<path d="M7.35847 19.1281C7.35847 19.2219 7.25645 19.2969 7.12782 19.2969C6.98145 19.3109 6.87944 19.2359 6.87944 19.1281C6.87944 19.0344 6.98145 18.9594 7.11008 18.9594C7.24315 18.9453 7.35847 19.0203 7.35847 19.1281ZM5.97903 18.9172C5.94798 19.0109 6.03669 19.1187 6.16976 19.1469C6.28508 19.1937 6.41815 19.1469 6.44476 19.0531C6.47137 18.9594 6.3871 18.8516 6.25403 18.8094C6.13871 18.7766 6.01008 18.8234 5.97903 18.9172ZM7.93952 18.8375C7.81089 18.8703 7.72218 18.9594 7.73548 19.0672C7.74879 19.1609 7.86411 19.2219 7.99718 19.1891C8.12581 19.1563 8.21452 19.0672 8.20121 18.9734C8.1879 18.8844 8.06814 18.8234 7.93952 18.8375ZM10.8581 0.875C4.70605 0.875 0 5.81094 0 12.3125C0 17.5109 3.09597 21.9594 7.51814 23.525C8.08589 23.6328 8.28548 23.2625 8.28548 22.9578C8.28548 22.6672 8.27218 21.0641 8.27218 20.0797C8.27218 20.0797 5.16734 20.7828 4.51532 18.6828C4.51532 18.6828 4.00968 17.3187 3.28226 16.9672C3.28226 16.9672 2.26653 16.2312 3.35323 16.2453C3.35323 16.2453 4.45766 16.3391 5.06532 17.4547C6.03669 19.2641 7.66452 18.7438 8.29879 18.4344C8.40081 17.6844 8.68911 17.1641 9.00847 16.8547C6.52903 16.5641 4.02742 16.1844 4.02742 11.675C4.02742 10.3859 4.36452 9.73906 5.07419 8.91406C4.95887 8.60938 4.58185 7.35312 5.18952 5.73125C6.11653 5.42656 8.25 6.99688 8.25 6.99688C9.1371 6.73438 10.0907 6.59844 11.0355 6.59844C11.9802 6.59844 12.9339 6.73438 13.821 6.99688C13.821 6.99688 15.9544 5.42187 16.8815 5.73125C17.4891 7.35781 17.1121 8.60938 16.9968 8.91406C17.7065 9.74375 18.1411 10.3906 18.1411 11.675C18.1411 16.1984 15.5286 16.5594 13.0492 16.8547C13.4573 17.225 13.8032 17.9281 13.8032 19.0297C13.8032 20.6094 13.7899 22.5641 13.7899 22.9484C13.7899 23.2531 13.994 23.6234 14.5573 23.5156C18.9927 21.9594 22 17.5109 22 12.3125C22 5.81094 17.0101 0.875 10.8581 0.875ZM4.31129 17.0422C4.25363 17.0891 4.26694 17.1969 4.34234 17.2859C4.41331 17.3609 4.51532 17.3938 4.57298 17.3328C4.63064 17.2859 4.61734 17.1781 4.54194 17.0891C4.47097 17.0141 4.36895 16.9812 4.31129 17.0422ZM3.83226 16.6625C3.80121 16.7234 3.84556 16.7984 3.93427 16.8453C4.00524 16.8922 4.09395 16.8781 4.125 16.8125C4.15605 16.7516 4.11169 16.6766 4.02298 16.6297C3.93427 16.6016 3.86331 16.6156 3.83226 16.6625ZM5.26935 18.3312C5.19839 18.3922 5.225 18.5328 5.32702 18.6219C5.42903 18.7297 5.55766 18.7438 5.61532 18.6688C5.67298 18.6078 5.64637 18.4672 5.55766 18.3781C5.46008 18.2703 5.32702 18.2562 5.26935 18.3312ZM4.76371 17.6422C4.69274 17.6891 4.69274 17.8109 4.76371 17.9188C4.83468 18.0266 4.95444 18.0734 5.0121 18.0266C5.08306 17.9656 5.08306 17.8438 5.0121 17.7359C4.95 17.6281 4.83468 17.5813 4.76371 17.6422Z" fill="black"/>
</g>
<defs>
<clipPath id="clip0">
<rect width="22" height="24" fill="white" transform="translate(0 0.5)"/>
</clipPath>
</defs>
</svg>
