<svg width="22" height="25" viewBox="0 0 22 25" fill="none" xmlns="http://www.w3.org/2000/svg">
<g clip-path="url(#clip0)">
<path d="M11.0049 7.10937C7.88169 7.10937 5.3625 9.51406 5.3625 12.4953C5.3625 15.4766 7.88169 17.8813 11.0049 17.8813C14.1281 17.8813 16.6473 15.4766 16.6473 12.4953C16.6473 9.51406 14.1281 7.10937 11.0049 7.10937ZM11.0049 15.9969C8.9866 15.9969 7.3366 14.4266 7.3366 12.4953C7.3366 10.5641 8.98169 8.99375 11.0049 8.99375C13.0281 8.99375 14.6732 10.5641 14.6732 12.4953C14.6732 14.4266 13.0232 15.9969 11.0049 15.9969V15.9969ZM18.1942 6.88906C18.1942 7.5875 17.6049 8.14531 16.8781 8.14531C16.1464 8.14531 15.562 7.58281 15.562 6.88906C15.562 6.19531 16.1513 5.63281 16.8781 5.63281C17.6049 5.63281 18.1942 6.19531 18.1942 6.88906ZM21.9312 8.16406C21.8477 6.48125 21.4451 4.99062 20.1536 3.7625C18.8669 2.53437 17.3053 2.14999 15.5424 2.06562C13.7254 1.96718 8.27946 1.96718 6.46249 2.06562C4.70446 2.14531 3.14285 2.52968 1.85134 3.75781C0.559821 4.98593 0.162053 6.47656 0.0736606 8.15937C-0.0294643 9.89375 -0.0294643 15.0922 0.0736606 16.8266C0.157143 18.5094 0.559821 20 1.85134 21.2281C3.14285 22.4563 4.69955 22.8406 6.46249 22.925C8.27946 23.0234 13.7254 23.0234 15.5424 22.925C17.3053 22.8453 18.8669 22.4609 20.1536 21.2281C21.4402 20 21.8428 18.5094 21.9312 16.8266C22.0344 15.0922 22.0344 9.89844 21.9312 8.16406V8.16406ZM19.5839 18.6875C19.2009 19.6063 18.4594 20.3141 17.492 20.6844C16.0433 21.2328 12.6058 21.1063 11.0049 21.1063C9.40401 21.1063 5.9616 21.2281 4.51785 20.6844C3.55535 20.3188 2.81384 19.6109 2.42589 18.6875C1.85134 17.3047 1.98393 14.0234 1.98393 12.4953C1.98393 10.9672 1.85625 7.68125 2.42589 6.30312C2.80893 5.38437 3.55044 4.67656 4.51785 4.30625C5.96651 3.75781 9.40401 3.88437 11.0049 3.88437C12.6058 3.88437 16.0482 3.76249 17.492 4.30625C18.4544 4.67187 19.196 5.37968 19.5839 6.30312C20.1585 7.68594 20.0259 10.9672 20.0259 12.4953C20.0259 14.0234 20.1585 17.3094 19.5839 18.6875Z" fill="black"/>
</g>
<defs>
<clipPath id="clip0">
<rect width="22" height="24" fill="white" transform="translate(0 0.5)"/>
</clipPath>
</defs>
</svg>
