<svg width="22" height="25" viewBox="0 0 22 25" fill="none" xmlns="http://www.w3.org/2000/svg">
<path d="M20.816 6.01719C20.9573 5.43125 20.816 5 20.1361 5H17.8865C17.3136 5 17.05 5.37031 16.9087 5.78281C16.9087 5.78281 15.7629 9.20937 14.1434 11.4312C13.6202 12.0734 13.3795 12.2797 13.0931 12.2797C12.9518 12.2797 12.734 12.0734 12.734 11.4875V6.01719C12.734 5.31406 12.5736 5 12.1 5H8.5632C8.20418 5 7.99029 5.32812 7.99029 5.63281C7.99029 6.29844 8.80001 6.45312 8.88404 8.32812V12.3969C8.88404 13.2875 8.75418 13.4516 8.46772 13.4516C7.70383 13.4516 5.84758 10.0109 4.74758 6.07344C4.52605 5.30938 4.30834 5 3.7316 5H1.48195C0.84028 5 0.710419 5.37031 0.710419 5.78281C0.710419 6.51406 1.47431 10.1469 4.26633 14.9469C6.1264 18.2234 8.74654 20 11.1299 20C12.5622 20 12.7379 19.6063 12.7379 18.9266C12.7379 15.7953 12.608 15.5 13.3261 15.5C13.6583 15.5 14.2313 15.7063 15.5681 17.2859C17.0959 19.1609 17.3479 20 18.2035 20H20.4531C21.0948 20 21.4195 19.6063 21.2323 18.8281C20.8045 17.1922 17.9132 13.8266 17.7834 13.6016C17.4511 13.0766 17.5465 12.8422 17.7834 12.3734C17.7872 12.3688 20.5334 7.625 20.816 6.01719V6.01719Z" fill="black"/>
</svg>
